<?xml version="1.0" encoding="utf-8"?>
<!-- Generator: Adobe Illustrator 23.0.6, SVG Export Plug-In . SVG Version: 6.00 Build 0)  -->
<svg version="1.1" id="Layer_1" xmlns="http://www.w3.org/2000/svg" xmlns:xlink="http://www.w3.org/1999/xlink" x="0px" y="0px"
	 viewBox="0 0 35 35" style="enable-background:new 0 0 35 35;" xml:space="preserve">
<style type="text/css">
	.st0{fill:#08AEEA;}
</style>
<path id="Icon_awesome-dribbble" class="st0" d="M17.5,0C7.8,0,0,7.8,0,17.5S7.8,35,17.5,35S35,27.2,35,17.5l0,0
	C35,7.8,27.2,0,17.5,0z M29.1,8.1c2.2,2.6,3.3,5.9,3.4,9.3c-3.4-0.7-6.9-0.8-10.4-0.5c-0.4-1-0.8-1.9-1.3-2.9
	C24,12.8,26.8,10.7,29.1,8.1z M27.4,6.3c-0.3,0.4-2.5,3.4-7.8,5.4c-1.7-3-3.5-6-5.6-8.7C18.7,1.8,23.8,3.1,27.4,6.3z M11.1,4
	c2,2.8,3.9,5.7,5.5,8.6c-4.5,1.2-9.2,1.8-13.8,1.8C3.8,9.9,6.9,6,11.1,4z M2.6,17.5c0-0.2,0-0.3,0-0.5c5.2,0,10.4-0.7,15.4-2.1
	c0.4,0.8,0.8,1.7,1.2,2.5c-5.3,1.7-9.8,5.3-12.7,10C3.9,24.8,2.5,21.2,2.6,17.5z M8.3,29.3c1.6-3.2,5.8-7.3,11.8-9.4
	c1.4,3.7,2.5,7.5,3.2,11.3C18.3,33.4,12.6,32.7,8.3,29.3z M25.9,29.9c-0.7-3.6-1.6-7.2-2.9-10.7c3.1-0.5,6.3-0.2,9.3,0.6
	C31.6,24,29.3,27.6,25.9,29.9L25.9,29.9z"/>
</svg>
